<mxfile host="app.diagrams.net" modified="2023-07-28T18:52:37.787Z" agent="Mozilla/5.0 (Macintosh; Intel Mac OS X 10.15; rv:109.0) Gecko/20100101 Firefox/115.0" etag="0XOkeHdPTQWSTg5dFblY" version="21.6.6" type="device">
  <diagram name="Page-1" id="qN3cm98GeN9VfvYrLrgI">
    <mxGraphModel dx="104" dy="458" grid="1" gridSize="10" guides="1" tooltips="1" connect="1" arrows="1" fold="1" page="1" pageScale="1" pageWidth="850" pageHeight="1100" math="0" shadow="0">
      <root>
        <mxCell id="0" />
        <mxCell id="1" parent="0" />
        <mxCell id="8Vevfw_l-WZCcZ3gMXjk-159" value="&lt;font color=&quot;#7ea6e0&quot;&gt;&lt;b&gt;Gestion des permissions&lt;/b&gt;&lt;/font&gt;" style="rounded=1;whiteSpace=wrap;html=1;fillColor=none;dashed=1;verticalAlign=top;strokeColor=#7EA6E0;" parent="1" vertex="1">
          <mxGeometry x="1080" y="1020" width="560" height="420" as="geometry" />
        </mxCell>
        <mxCell id="8Vevfw_l-WZCcZ3gMXjk-164" value="&lt;font color=&quot;#7ea6e0&quot;&gt;&lt;b&gt;Préparation du backup&lt;br&gt;&lt;/b&gt;&lt;/font&gt;" style="rounded=1;whiteSpace=wrap;html=1;fillColor=none;dashed=1;strokeColor=#7EA6E0;verticalAlign=top;" parent="1" vertex="1">
          <mxGeometry x="1920" y="1020" width="620" height="190" as="geometry" />
        </mxCell>
        <mxCell id="8Vevfw_l-WZCcZ3gMXjk-161" value="&lt;div&gt;&lt;b&gt;&lt;font color=&quot;#7ea6e0&quot;&gt;Exécution du backup&lt;br&gt;&lt;/font&gt;&lt;/b&gt;&lt;/div&gt;&lt;div&gt;&lt;br&gt;&lt;/div&gt;" style="rounded=1;whiteSpace=wrap;html=1;dashed=1;fillColor=none;verticalAlign=top;fontStyle=0;strokeColor=#7EA6E0;" parent="1" vertex="1">
          <mxGeometry x="2590" y="1010" width="860" height="440" as="geometry" />
        </mxCell>
        <mxCell id="8Vevfw_l-WZCcZ3gMXjk-162" value="&lt;font color=&quot;#7ea6e0&quot;&gt;&lt;b&gt;Initialisation/restauration du backup&lt;br&gt;&lt;/b&gt;&lt;/font&gt;" style="rounded=1;whiteSpace=wrap;html=1;dashed=1;fillColor=none;verticalAlign=top;strokeColor=#7EA6E0;" parent="1" vertex="1">
          <mxGeometry x="1470" y="1520" width="810" height="620" as="geometry" />
        </mxCell>
        <mxCell id="8Vevfw_l-WZCcZ3gMXjk-103" value="Initialisation/restauration du backup" style="rounded=1;whiteSpace=wrap;html=1;" parent="1" vertex="1">
          <mxGeometry x="1500" y="1070" width="120" height="60" as="geometry" />
        </mxCell>
        <mxCell id="8Vevfw_l-WZCcZ3gMXjk-104" value="" style="endArrow=classic;html=1;rounded=0;entryX=0;entryY=0.5;entryDx=0;entryDy=0;exitX=1;exitY=0.5;exitDx=0;exitDy=0;" parent="1" source="8Vevfw_l-WZCcZ3gMXjk-103" target="8Vevfw_l-WZCcZ3gMXjk-143" edge="1">
          <mxGeometry width="50" height="50" relative="1" as="geometry">
            <mxPoint x="1570" y="1310" as="sourcePoint" />
            <mxPoint x="1980" y="970" as="targetPoint" />
          </mxGeometry>
        </mxCell>
        <mxCell id="8Vevfw_l-WZCcZ3gMXjk-105" value="&lt;div&gt;Il y a un backup dans l&#39;AsyncStorage&lt;/div&gt;&lt;div&gt;&lt;br&gt;&lt;/div&gt;" style="edgeLabel;html=1;align=center;verticalAlign=middle;resizable=0;points=[];" parent="8Vevfw_l-WZCcZ3gMXjk-104" vertex="1" connectable="0">
          <mxGeometry x="0.1779" y="-4" relative="1" as="geometry">
            <mxPoint x="-44" as="offset" />
          </mxGeometry>
        </mxCell>
        <mxCell id="8Vevfw_l-WZCcZ3gMXjk-106" value="&lt;div&gt;On vérifie s&#39;il y a un backup&amp;nbsp; à restaurer sur Drive&lt;br&gt;&lt;/div&gt;" style="rounded=1;whiteSpace=wrap;html=1;" parent="1" vertex="1">
          <mxGeometry x="1500" y="1770" width="120" height="60" as="geometry" />
        </mxCell>
        <mxCell id="8Vevfw_l-WZCcZ3gMXjk-107" value="" style="endArrow=classic;html=1;rounded=0;entryX=0.5;entryY=0;entryDx=0;entryDy=0;exitX=0.5;exitY=1;exitDx=0;exitDy=0;" parent="1" source="8Vevfw_l-WZCcZ3gMXjk-103" target="8Vevfw_l-WZCcZ3gMXjk-106" edge="1">
          <mxGeometry width="50" height="50" relative="1" as="geometry">
            <mxPoint x="1680" y="1320" as="sourcePoint" />
            <mxPoint x="1730" y="1270" as="targetPoint" />
          </mxGeometry>
        </mxCell>
        <mxCell id="8Vevfw_l-WZCcZ3gMXjk-108" value="Il y a pas de backup dans l&#39;AsyncStorage" style="edgeLabel;html=1;align=center;verticalAlign=middle;resizable=0;points=[];" parent="8Vevfw_l-WZCcZ3gMXjk-107" vertex="1" connectable="0">
          <mxGeometry x="-0.0104" y="-1" relative="1" as="geometry">
            <mxPoint x="1" as="offset" />
          </mxGeometry>
        </mxCell>
        <mxCell id="8Vevfw_l-WZCcZ3gMXjk-109" value="" style="endArrow=classic;html=1;rounded=0;exitX=1;exitY=0.5;exitDx=0;exitDy=0;entryX=0;entryY=0.5;entryDx=0;entryDy=0;" parent="1" source="8Vevfw_l-WZCcZ3gMXjk-106" target="8Vevfw_l-WZCcZ3gMXjk-112" edge="1">
          <mxGeometry width="50" height="50" relative="1" as="geometry">
            <mxPoint x="1780" y="1630" as="sourcePoint" />
            <mxPoint x="1900" y="1520" as="targetPoint" />
          </mxGeometry>
        </mxCell>
        <mxCell id="8Vevfw_l-WZCcZ3gMXjk-110" value="On a un dossier de backup avec un ID identique&lt;br&gt;&lt;div&gt;&lt;i&gt;Cas d&#39;une réinstallation avec restoration&lt;/i&gt;&lt;br&gt;&lt;/div&gt;" style="edgeLabel;html=1;align=center;verticalAlign=middle;resizable=0;points=[];" parent="8Vevfw_l-WZCcZ3gMXjk-109" vertex="1" connectable="0">
          <mxGeometry x="-0.097" y="-2" relative="1" as="geometry">
            <mxPoint as="offset" />
          </mxGeometry>
        </mxCell>
        <mxCell id="8Vevfw_l-WZCcZ3gMXjk-111" value="&lt;div&gt;On a un dossier de backup avec un nom identique&lt;br&gt;&lt;/div&gt;&lt;div&gt;&lt;i&gt;Cas d&#39;une réinstallation sans restoration&lt;br&gt;&lt;/i&gt;&lt;/div&gt;" style="endArrow=classic;html=1;rounded=0;entryX=0;entryY=0.5;entryDx=0;entryDy=0;exitX=1;exitY=0.5;exitDx=0;exitDy=0;" parent="1" source="cNGP83xXqyP8LiFBJWCZ-5" target="8Vevfw_l-WZCcZ3gMXjk-145" edge="1">
          <mxGeometry x="0.006" width="50" height="50" relative="1" as="geometry">
            <mxPoint x="1650" y="1880" as="sourcePoint" />
            <mxPoint x="1940" y="1490" as="targetPoint" />
            <Array as="points" />
            <mxPoint as="offset" />
          </mxGeometry>
        </mxCell>
        <mxCell id="8Vevfw_l-WZCcZ3gMXjk-112" value="On sauvegarde les données de ce backup dans l&#39;AsyncStorage" style="rounded=1;whiteSpace=wrap;html=1;" parent="1" vertex="1">
          <mxGeometry x="1815" y="1620" width="120" height="60" as="geometry" />
        </mxCell>
        <mxCell id="8Vevfw_l-WZCcZ3gMXjk-114" value="&lt;div&gt;On envoie chaque photo une par une&lt;br&gt;&lt;/div&gt;" style="rounded=1;whiteSpace=wrap;html=1;" parent="1" vertex="1">
          <mxGeometry x="2860" y="1070" width="120" height="60" as="geometry" />
        </mxCell>
        <mxCell id="8Vevfw_l-WZCcZ3gMXjk-115" value="&lt;div&gt;On ajoute la photo à la liste locale des photos déjà sauvegardées &lt;br&gt;&lt;/div&gt;" style="rounded=1;whiteSpace=wrap;html=1;" parent="1" vertex="1">
          <mxGeometry x="2610" y="1350" width="260" height="60" as="geometry" />
        </mxCell>
        <mxCell id="8Vevfw_l-WZCcZ3gMXjk-116" value="" style="endArrow=classic;html=1;rounded=0;exitX=0.5;exitY=1;exitDx=0;exitDy=0;entryX=0.75;entryY=0;entryDx=0;entryDy=0;" parent="1" source="8Vevfw_l-WZCcZ3gMXjk-114" target="8Vevfw_l-WZCcZ3gMXjk-115" edge="1">
          <mxGeometry width="50" height="50" relative="1" as="geometry">
            <mxPoint x="2220" y="1620" as="sourcePoint" />
            <mxPoint x="2490" y="1460" as="targetPoint" />
          </mxGeometry>
        </mxCell>
        <mxCell id="8Vevfw_l-WZCcZ3gMXjk-117" value="&lt;div&gt;OK&lt;/div&gt;" style="edgeLabel;html=1;align=center;verticalAlign=middle;resizable=0;points=[];" parent="8Vevfw_l-WZCcZ3gMXjk-116" vertex="1" connectable="0">
          <mxGeometry x="-0.1294" y="2" relative="1" as="geometry">
            <mxPoint as="offset" />
          </mxGeometry>
        </mxCell>
        <mxCell id="8Vevfw_l-WZCcZ3gMXjk-118" value="" style="endArrow=classic;html=1;rounded=0;exitX=1;exitY=0.5;exitDx=0;exitDy=0;entryX=0;entryY=0.5;entryDx=0;entryDy=0;" parent="1" source="8Vevfw_l-WZCcZ3gMXjk-114" target="8Vevfw_l-WZCcZ3gMXjk-120" edge="1">
          <mxGeometry width="50" height="50" relative="1" as="geometry">
            <mxPoint x="2610" y="1400" as="sourcePoint" />
            <mxPoint x="2740" y="1380" as="targetPoint" />
          </mxGeometry>
        </mxCell>
        <mxCell id="8Vevfw_l-WZCcZ3gMXjk-120" value="Backup terminé" style="rounded=1;whiteSpace=wrap;html=1;fillColor=#d5e8d4;strokeColor=#82b366;" parent="1" vertex="1">
          <mxGeometry x="3470" y="1070" width="120" height="60" as="geometry" />
        </mxCell>
        <mxCell id="8Vevfw_l-WZCcZ3gMXjk-121" value="&lt;div&gt;On fait la différence avec la liste locale des photos déjà sauvegardées &lt;br&gt;&lt;/div&gt;" style="rounded=1;whiteSpace=wrap;html=1;" parent="1" vertex="1">
          <mxGeometry x="2280" y="1070" width="240" height="60" as="geometry" />
        </mxCell>
        <mxCell id="8Vevfw_l-WZCcZ3gMXjk-122" value="" style="endArrow=classic;html=1;rounded=0;exitX=1;exitY=0.5;exitDx=0;exitDy=0;entryX=0;entryY=0.5;entryDx=0;entryDy=0;" parent="1" source="8Vevfw_l-WZCcZ3gMXjk-121" target="8Vevfw_l-WZCcZ3gMXjk-114" edge="1">
          <mxGeometry width="50" height="50" relative="1" as="geometry">
            <mxPoint x="2460" y="1290" as="sourcePoint" />
            <mxPoint x="2510" y="1240" as="targetPoint" />
          </mxGeometry>
        </mxCell>
        <mxCell id="8Vevfw_l-WZCcZ3gMXjk-124" value="" style="endArrow=classic;html=1;rounded=0;entryX=0;entryY=0.5;entryDx=0;entryDy=0;exitX=1;exitY=0.5;exitDx=0;exitDy=0;" parent="1" source="8Vevfw_l-WZCcZ3gMXjk-143" target="cNGP83xXqyP8LiFBJWCZ-10" edge="1">
          <mxGeometry width="50" height="50" relative="1" as="geometry">
            <mxPoint x="2100" y="970" as="sourcePoint" />
            <mxPoint x="2150" y="1100" as="targetPoint" />
          </mxGeometry>
        </mxCell>
        <mxCell id="8Vevfw_l-WZCcZ3gMXjk-125" value="On arrive sur la page&amp;nbsp;de backup dans Photos" style="rounded=1;whiteSpace=wrap;html=1;" parent="1" vertex="1">
          <mxGeometry x="925" y="1070" width="120" height="60" as="geometry" />
        </mxCell>
        <mxCell id="8Vevfw_l-WZCcZ3gMXjk-126" value="" style="endArrow=classic;html=1;rounded=0;entryX=0;entryY=0.5;entryDx=0;entryDy=0;exitX=1;exitY=0.5;exitDx=0;exitDy=0;" parent="1" source="cNGP83xXqyP8LiFBJWCZ-1" target="8Vevfw_l-WZCcZ3gMXjk-103" edge="1">
          <mxGeometry width="50" height="50" relative="1" as="geometry">
            <mxPoint x="1310" y="1130" as="sourcePoint" />
            <mxPoint x="1570" y="1200" as="targetPoint" />
          </mxGeometry>
        </mxCell>
        <mxCell id="8Vevfw_l-WZCcZ3gMXjk-127" value="On a les permissions nécessaires" style="edgeLabel;html=1;align=center;verticalAlign=middle;resizable=0;points=[];" parent="8Vevfw_l-WZCcZ3gMXjk-126" vertex="1" connectable="0">
          <mxGeometry x="0.0333" y="2" relative="1" as="geometry">
            <mxPoint as="offset" />
          </mxGeometry>
        </mxCell>
        <mxCell id="8Vevfw_l-WZCcZ3gMXjk-128" value="&lt;div&gt;On demande les permissions&lt;/div&gt;&lt;div&gt;&lt;br&gt;&lt;/div&gt;" style="rounded=1;whiteSpace=wrap;html=1;" parent="1" vertex="1">
          <mxGeometry x="1130" y="1260" width="120" height="60" as="geometry" />
        </mxCell>
        <mxCell id="8Vevfw_l-WZCcZ3gMXjk-129" value="On a pas les permissions nécessaires" style="endArrow=classic;html=1;rounded=0;entryX=0.25;entryY=0;entryDx=0;entryDy=0;exitX=0.25;exitY=1;exitDx=0;exitDy=0;" parent="1" source="cNGP83xXqyP8LiFBJWCZ-1" target="8Vevfw_l-WZCcZ3gMXjk-128" edge="1">
          <mxGeometry width="50" height="50" relative="1" as="geometry">
            <mxPoint x="1250" y="1280" as="sourcePoint" />
            <mxPoint x="1300" y="1230" as="targetPoint" />
          </mxGeometry>
        </mxCell>
        <mxCell id="8Vevfw_l-WZCcZ3gMXjk-130" value="" style="endArrow=classic;html=1;rounded=0;entryX=0.75;entryY=1;entryDx=0;entryDy=0;exitX=0.75;exitY=0;exitDx=0;exitDy=0;" parent="1" source="8Vevfw_l-WZCcZ3gMXjk-128" target="cNGP83xXqyP8LiFBJWCZ-1" edge="1">
          <mxGeometry width="50" height="50" relative="1" as="geometry">
            <mxPoint x="1210" y="1260" as="sourcePoint" />
            <mxPoint x="1260" y="1210" as="targetPoint" />
          </mxGeometry>
        </mxCell>
        <mxCell id="8Vevfw_l-WZCcZ3gMXjk-137" value="" style="endArrow=classic;html=1;rounded=0;entryX=0.5;entryY=1;entryDx=0;entryDy=0;exitX=0.25;exitY=0;exitDx=0;exitDy=0;" parent="1" source="8Vevfw_l-WZCcZ3gMXjk-115" target="8Vevfw_l-WZCcZ3gMXjk-114" edge="1">
          <mxGeometry width="50" height="50" relative="1" as="geometry">
            <mxPoint x="2290" y="1600" as="sourcePoint" />
            <mxPoint x="2340" y="1550" as="targetPoint" />
          </mxGeometry>
        </mxCell>
        <mxCell id="8Vevfw_l-WZCcZ3gMXjk-138" value="On saute la photo" style="rounded=1;whiteSpace=wrap;html=1;" parent="1" vertex="1">
          <mxGeometry x="3130" y="1350" width="120" height="60" as="geometry" />
        </mxCell>
        <mxCell id="8Vevfw_l-WZCcZ3gMXjk-139" value="" style="endArrow=classic;html=1;rounded=0;exitX=0.5;exitY=1;exitDx=0;exitDy=0;entryX=0.75;entryY=0;entryDx=0;entryDy=0;" parent="1" source="8Vevfw_l-WZCcZ3gMXjk-114" target="8Vevfw_l-WZCcZ3gMXjk-138" edge="1">
          <mxGeometry width="50" height="50" relative="1" as="geometry">
            <mxPoint x="2760" y="1550" as="sourcePoint" />
            <mxPoint x="2810" y="1500" as="targetPoint" />
          </mxGeometry>
        </mxCell>
        <mxCell id="8Vevfw_l-WZCcZ3gMXjk-140" value="&lt;div&gt;Erreur normale&lt;br&gt;&lt;/div&gt;" style="edgeLabel;html=1;align=center;verticalAlign=middle;resizable=0;points=[];" parent="8Vevfw_l-WZCcZ3gMXjk-139" vertex="1" connectable="0">
          <mxGeometry x="0.1079" y="-2" relative="1" as="geometry">
            <mxPoint x="-23" y="-8" as="offset" />
          </mxGeometry>
        </mxCell>
        <mxCell id="8Vevfw_l-WZCcZ3gMXjk-141" value="" style="endArrow=classic;html=1;rounded=0;entryX=0.5;entryY=1;entryDx=0;entryDy=0;exitX=0.25;exitY=0;exitDx=0;exitDy=0;" parent="1" source="8Vevfw_l-WZCcZ3gMXjk-138" target="8Vevfw_l-WZCcZ3gMXjk-114" edge="1">
          <mxGeometry width="50" height="50" relative="1" as="geometry">
            <mxPoint x="2830" y="1520" as="sourcePoint" />
            <mxPoint x="2820" y="1480" as="targetPoint" />
          </mxGeometry>
        </mxCell>
        <mxCell id="8Vevfw_l-WZCcZ3gMXjk-144" value="" style="endArrow=classic;html=1;rounded=0;exitX=1;exitY=0.5;exitDx=0;exitDy=0;entryX=0;entryY=0.5;entryDx=0;entryDy=0;" parent="1" source="8Vevfw_l-WZCcZ3gMXjk-112" target="8Vevfw_l-WZCcZ3gMXjk-165" edge="1">
          <mxGeometry width="50" height="50" relative="1" as="geometry">
            <mxPoint x="1760" y="1120" as="sourcePoint" />
            <mxPoint x="1760" y="1060" as="targetPoint" />
          </mxGeometry>
        </mxCell>
        <mxCell id="8Vevfw_l-WZCcZ3gMXjk-143" value="&lt;div&gt;On récupère la liste des albums sur le téléphone et on créé les albums qui n&#39;existent pas encore sur Photos&lt;/div&gt;" style="rounded=1;whiteSpace=wrap;html=1;" parent="1" vertex="1">
          <mxGeometry x="1965" y="1040" width="120" height="120" as="geometry" />
        </mxCell>
        <mxCell id="8Vevfw_l-WZCcZ3gMXjk-145" value="On créé un nouveau dossier de backup &lt;i&gt;Nokia 3310 (1)&lt;/i&gt;" style="rounded=1;whiteSpace=wrap;html=1;" parent="1" vertex="1">
          <mxGeometry x="1960" y="1820" width="120" height="60" as="geometry" />
        </mxCell>
        <mxCell id="8Vevfw_l-WZCcZ3gMXjk-146" value="" style="endArrow=classic;html=1;rounded=0;exitX=1;exitY=0.5;exitDx=0;exitDy=0;entryX=0;entryY=0.5;entryDx=0;entryDy=0;" parent="1" source="8Vevfw_l-WZCcZ3gMXjk-145" target="8Vevfw_l-WZCcZ3gMXjk-165" edge="1">
          <mxGeometry width="50" height="50" relative="1" as="geometry">
            <mxPoint x="1820" y="1260" as="sourcePoint" />
            <mxPoint x="1870" y="1210" as="targetPoint" />
          </mxGeometry>
        </mxCell>
        <mxCell id="8Vevfw_l-WZCcZ3gMXjk-147" value="" style="endArrow=classic;html=1;rounded=0;entryX=0;entryY=0.5;entryDx=0;entryDy=0;exitX=1;exitY=0.5;exitDx=0;exitDy=0;" parent="1" source="cNGP83xXqyP8LiFBJWCZ-5" target="8Vevfw_l-WZCcZ3gMXjk-166" edge="1">
          <mxGeometry width="50" height="50" relative="1" as="geometry">
            <mxPoint x="1650" y="1880" as="sourcePoint" />
            <mxPoint x="1550" y="1440" as="targetPoint" />
          </mxGeometry>
        </mxCell>
        <mxCell id="8Vevfw_l-WZCcZ3gMXjk-165" value="Backup initialisé/restauré" style="rounded=1;whiteSpace=wrap;html=1;fillColor=#d5e8d4;strokeColor=#82b366;" parent="1" vertex="1">
          <mxGeometry x="2147.5" y="1750" width="120" height="60" as="geometry" />
        </mxCell>
        <mxCell id="8Vevfw_l-WZCcZ3gMXjk-166" value="On créé un nouveau dossier de backup &lt;i&gt;Nokia 3310&lt;/i&gt;" style="rounded=1;whiteSpace=wrap;html=1;" parent="1" vertex="1">
          <mxGeometry x="1960" y="2020" width="120" height="60" as="geometry" />
        </mxCell>
        <mxCell id="8Vevfw_l-WZCcZ3gMXjk-167" value="" style="endArrow=classic;html=1;rounded=0;entryX=0;entryY=0.5;entryDx=0;entryDy=0;exitX=1;exitY=0.5;exitDx=0;exitDy=0;" parent="1" source="8Vevfw_l-WZCcZ3gMXjk-166" target="8Vevfw_l-WZCcZ3gMXjk-165" edge="1">
          <mxGeometry width="50" height="50" relative="1" as="geometry">
            <mxPoint x="1980" y="1970" as="sourcePoint" />
            <mxPoint x="2030" y="1920" as="targetPoint" />
          </mxGeometry>
        </mxCell>
        <mxCell id="8Vevfw_l-WZCcZ3gMXjk-168" value="" style="endArrow=classic;html=1;rounded=0;exitX=0.5;exitY=0;exitDx=0;exitDy=0;entryX=0.5;entryY=1;entryDx=0;entryDy=0;" parent="1" source="8Vevfw_l-WZCcZ3gMXjk-165" target="8Vevfw_l-WZCcZ3gMXjk-103" edge="1">
          <mxGeometry width="50" height="50" relative="1" as="geometry">
            <mxPoint x="2310" y="1780" as="sourcePoint" />
            <mxPoint x="2360" y="1730" as="targetPoint" />
          </mxGeometry>
        </mxCell>
        <mxCell id="cNGP83xXqyP8LiFBJWCZ-2" value="" style="endArrow=classic;html=1;rounded=0;entryX=0;entryY=0.5;entryDx=0;entryDy=0;exitX=1;exitY=0.5;exitDx=0;exitDy=0;" parent="1" source="8Vevfw_l-WZCcZ3gMXjk-125" target="cNGP83xXqyP8LiFBJWCZ-1" edge="1">
          <mxGeometry width="50" height="50" relative="1" as="geometry">
            <mxPoint x="1045" y="1100" as="sourcePoint" />
            <mxPoint x="1500" y="1100" as="targetPoint" />
          </mxGeometry>
        </mxCell>
        <mxCell id="cNGP83xXqyP8LiFBJWCZ-1" value="&lt;div&gt;On vérifie si on a les permissions&lt;br&gt;&lt;/div&gt;" style="rounded=1;whiteSpace=wrap;html=1;" parent="1" vertex="1">
          <mxGeometry x="1130" y="1070" width="120" height="60" as="geometry" />
        </mxCell>
        <mxCell id="cNGP83xXqyP8LiFBJWCZ-5" value="On vérifie s&#39;il y a un conflit avec un dossier de backup" style="rounded=1;whiteSpace=wrap;html=1;" parent="1" vertex="1">
          <mxGeometry x="1670" y="1920" width="120" height="60" as="geometry" />
        </mxCell>
        <mxCell id="cNGP83xXqyP8LiFBJWCZ-7" value="" style="endArrow=classic;html=1;rounded=0;entryX=0.5;entryY=0;entryDx=0;entryDy=0;exitX=1;exitY=0.5;exitDx=0;exitDy=0;" parent="1" source="8Vevfw_l-WZCcZ3gMXjk-106" target="cNGP83xXqyP8LiFBJWCZ-5" edge="1">
          <mxGeometry width="50" height="50" relative="1" as="geometry">
            <mxPoint x="1500" y="1920" as="sourcePoint" />
            <mxPoint x="1550" y="1870" as="targetPoint" />
          </mxGeometry>
        </mxCell>
        <mxCell id="cNGP83xXqyP8LiFBJWCZ-10" value="&lt;div&gt;On récupère la liste des photos sur le téléphone&lt;br&gt;&lt;/div&gt;" style="rounded=1;whiteSpace=wrap;html=1;" parent="1" vertex="1">
          <mxGeometry x="2125" y="1070" width="120" height="60" as="geometry" />
        </mxCell>
        <mxCell id="cNGP83xXqyP8LiFBJWCZ-11" value="" style="endArrow=classic;html=1;rounded=0;entryX=0;entryY=0.5;entryDx=0;entryDy=0;exitX=1;exitY=0.5;exitDx=0;exitDy=0;" parent="1" source="cNGP83xXqyP8LiFBJWCZ-10" target="8Vevfw_l-WZCcZ3gMXjk-121" edge="1">
          <mxGeometry width="50" height="50" relative="1" as="geometry">
            <mxPoint x="2240" y="1320" as="sourcePoint" />
            <mxPoint x="2290" y="1270" as="targetPoint" />
          </mxGeometry>
        </mxCell>
        <mxCell id="cNGP83xXqyP8LiFBJWCZ-17" value="On arrête" style="rounded=1;whiteSpace=wrap;html=1;" parent="1" vertex="1">
          <mxGeometry x="3300" y="1350" width="120" height="60" as="geometry" />
        </mxCell>
        <mxCell id="cNGP83xXqyP8LiFBJWCZ-18" value="" style="endArrow=classic;html=1;rounded=0;entryX=0.5;entryY=1;entryDx=0;entryDy=0;exitX=0.25;exitY=0;exitDx=0;exitDy=0;" parent="1" source="cNGP83xXqyP8LiFBJWCZ-17" target="8Vevfw_l-WZCcZ3gMXjk-114" edge="1">
          <mxGeometry width="50" height="50" relative="1" as="geometry">
            <mxPoint x="3070" y="1250" as="sourcePoint" />
            <mxPoint x="3120" y="1200" as="targetPoint" />
          </mxGeometry>
        </mxCell>
        <mxCell id="cNGP83xXqyP8LiFBJWCZ-19" value="" style="endArrow=classic;html=1;rounded=0;exitX=0.5;exitY=1;exitDx=0;exitDy=0;entryX=0.75;entryY=0;entryDx=0;entryDy=0;" parent="1" source="8Vevfw_l-WZCcZ3gMXjk-114" target="cNGP83xXqyP8LiFBJWCZ-17" edge="1">
          <mxGeometry width="50" height="50" relative="1" as="geometry">
            <mxPoint x="3110" y="1330" as="sourcePoint" />
            <mxPoint x="3160" y="1280" as="targetPoint" />
            <Array as="points" />
          </mxGeometry>
        </mxCell>
        <mxCell id="cNGP83xXqyP8LiFBJWCZ-20" value="Erreur fatale (ex. : 413 Quota Exceeded)" style="edgeLabel;html=1;align=center;verticalAlign=middle;resizable=0;points=[];" parent="cNGP83xXqyP8LiFBJWCZ-19" vertex="1" connectable="0">
          <mxGeometry x="0.0627" y="-2" relative="1" as="geometry">
            <mxPoint x="41" y="36" as="offset" />
          </mxGeometry>
        </mxCell>
        <mxCell id="cNGP83xXqyP8LiFBJWCZ-21" value="" style="endArrow=classic;html=1;rounded=0;entryX=0;entryY=0.5;entryDx=0;entryDy=0;exitX=1;exitY=0.5;exitDx=0;exitDy=0;" parent="1" source="cNGP83xXqyP8LiFBJWCZ-17" target="8Vevfw_l-WZCcZ3gMXjk-120" edge="1">
          <mxGeometry width="50" height="50" relative="1" as="geometry">
            <mxPoint x="3440" y="1400" as="sourcePoint" />
            <mxPoint x="3490" y="1350" as="targetPoint" />
          </mxGeometry>
        </mxCell>
        <mxCell id="cNGP83xXqyP8LiFBJWCZ-22" value="" style="endArrow=classic;html=1;rounded=0;exitX=0.5;exitY=1;exitDx=0;exitDy=0;entryX=0.75;entryY=0;entryDx=0;entryDy=0;" parent="1" source="8Vevfw_l-WZCcZ3gMXjk-114" target="cNGP83xXqyP8LiFBJWCZ-24" edge="1">
          <mxGeometry width="50" height="50" relative="1" as="geometry">
            <mxPoint x="2640" y="1320" as="sourcePoint" />
            <mxPoint x="2760" y="1020" as="targetPoint" />
          </mxGeometry>
        </mxCell>
        <mxCell id="cNGP83xXqyP8LiFBJWCZ-23" value="Erreur de conflit" style="edgeLabel;html=1;align=center;verticalAlign=middle;resizable=0;points=[];" parent="cNGP83xXqyP8LiFBJWCZ-22" vertex="1" connectable="0">
          <mxGeometry x="0.3078" y="4" relative="1" as="geometry">
            <mxPoint as="offset" />
          </mxGeometry>
        </mxCell>
        <mxCell id="cNGP83xXqyP8LiFBJWCZ-24" value="On upload le fichier en rajoutant un _1 " style="rounded=1;whiteSpace=wrap;html=1;" parent="1" vertex="1">
          <mxGeometry x="2940" y="1350" width="120" height="60" as="geometry" />
        </mxCell>
        <mxCell id="cNGP83xXqyP8LiFBJWCZ-25" value="" style="endArrow=classic;html=1;rounded=0;entryX=0.5;entryY=1;entryDx=0;entryDy=0;exitX=0.25;exitY=0;exitDx=0;exitDy=0;" parent="1" source="cNGP83xXqyP8LiFBJWCZ-24" target="8Vevfw_l-WZCcZ3gMXjk-114" edge="1">
          <mxGeometry width="50" height="50" relative="1" as="geometry">
            <mxPoint x="2340" y="1350" as="sourcePoint" />
            <mxPoint x="2390" y="1300" as="targetPoint" />
          </mxGeometry>
        </mxCell>
      </root>
    </mxGraphModel>
  </diagram>
</mxfile>
